<svg xmlns="http://www.w3.org/2000/svg" viewBox="0 0 768.38 765.07"><defs><style>.cls-1{fill:#ff9100;}</style></defs><title>OCLogo</title><g id="Layer_1" data-name="Layer 1"><path id="CA" class="cls-1" d="M547,779.65,472.82,771l-37.63-4.81-1.88-5.76V730.31l-1.13-10.25-9.79-13.46-3-7.37L404.7,685.78l-10.91-15.06-10.16-.64-12-2.56-1.13-3.21,5.64-1.92-2.26-10.25-5.64-6.73-18.07-2.56-14.68-6.73-4.13-7.37-9.79-15.38-10.91-9.93H299.7L285,596.71,268.09,591l-15.81-1.61-9-8.65,1.88-6.08,6.77-22.75,3-6.09v-7.69l-6-3.2L247,525.59l-5.64-8.33-12.8-18.58-4.89-9.94L218,473.69l-6-17-12-14.1-1.88-9.29,3-12.5h4.14l7.9-5.12,4.14-11.54-3.76-8.65-10.17-1.6-7.15-8.33-7.9-11.85-.75-26.27,2.26-6.09,2.25-7.37,1.89-7.69-21.46-20.18V299.4l1.13-1.6,1.13-10.25-4.89-12.82-8.66-15.38L151,244.94l-6.77-12.5L148,220.59,150.29,202l6.77-9.94,1.13-20.82-4.14-11.53-6-13.46L137.87,132.8l3-10.25,5.64-13.45,6.78-2.57,1.13-3.52,11.66-8.33,19.58-37.81.75-23.7,6.36-15.7,145.61,37.8,96.35,21.15L404.63,176.7,372,282.74l47.53,61.51L578.2,543.85l64.36,83.62-1.5,9.93,10.53,16.66,4.14,17.3,3.77,4.81,2.63,1.92-.75,4.48-5.27,3.21-12.8,5.12-7.15,6.73-6.39,12.5-1.89,15-9.78,8-8.66,3.53-.37,19.86-2.26,6.09,3.76,5.45,11.29,1-1.5,5.12-5.27,6.41-14.68,1.92Z" transform="translate(-16.88 -17.47)"/></g><g id="Layer_2" data-name="Layer 2"><path d="M47.32,291.67c19.16,0,29.86,10.41,29.86,27.24v17.51c0,16.83-10.7,27.24-29.86,27.24s-30-10.41-30-27.24V318.91C17.36,302.08,28.06,291.67,47.32,291.67Zm0,17c-6.81,0-10.7,3.21-10.7,9.34V337.3c0,6.12,3.89,9.33,10.7,9.33s10.6-3.21,10.6-9.33V318C57.92,311.91,54,308.7,47.32,308.7Z" transform="translate(-16.88 -17.47)"/><path d="M141.48,316.58c0,9.53-3.89,16.34-10.5,20a25.23,25.23,0,0,1,2.62,4.19l8.76,16.63c1.36,2.63.68,4.77-2.53,4.77H129.32c-5.15,0-7.39-1.27-8.95-4.67l-6.22-13.33c-1.66-3.31-3.31-5-7.3-5h-2.23v18.87c0,3-1,4.09-4.09,4.09h-11c-3.12,0-4.19-1.07-4.19-4.09V297.22c0-3,1.07-4.09,4.19-4.09h27.72C132,293.13,141.48,301.5,141.48,316.58Zm-26.36-6.42h-10.5V323h10.5c4.09,0,6.42-2.53,6.42-6.52S119.3,310.16,115.12,310.16Z" transform="translate(-16.88 -17.47)"/><path d="M153.55,293.13H165c2.92,0,3.9,1,3.9,3.89v61.29c0,2.92-1,3.89-3.9,3.89H153.55c-2.92,0-3.89-1-3.89-3.89V297C149.66,294.11,150.63,293.13,153.55,293.13Z" transform="translate(-16.88 -17.47)"/><path d="M236.91,326.69v12.84c0,13.72-10.7,24.13-29.86,24.13s-30-10.41-30-27.24V318.91c0-16.83,10.8-27.24,30-27.24,15,0,24.32,6.13,28.4,17,1,2.82.29,4.28-2.62,5.25l-10.41,3.7c-3,1-4.18.39-5.25-2.63-1.76-4.38-4.67-6.32-10.12-6.32-7.69,0-10.7,3.3-10.7,10.11v17.71c0,6.81,3,10.11,10.7,10.11,6.52,0,10.5-2.43,10.5-6.61v-1.95h-9.33c-3,0-4.09-1-4.09-4.08v-7.3c0-3.11,1.07-4.18,4.09-4.18h24.61C235.94,322.51,236.91,323.58,236.91,326.69Z" transform="translate(-16.88 -17.47)"/><path d="M248.49,293.13H260c2.92,0,3.89,1,3.89,3.89v61.29c0,2.92-1,3.89-3.89,3.89H248.49c-2.92,0-3.89-1-3.89-3.89V297C244.6,294.11,245.57,293.13,248.49,293.13Z" transform="translate(-16.88 -17.47)"/><path d="M332.05,297.22v60.89c0,3-1.07,4.09-4.09,4.09H317c-2,0-3.11-.59-4-1.95L298,337.2c-4.28-6.71-5.93-11.29-8.56-20h-.78c2,9.34,3.21,14.3,3.21,25.1v15.85c0,3-1.07,4.09-4.18,4.09h-9.82c-3.12,0-4.19-1.07-4.19-4.09V297.22c0-3,1.07-4.09,4.19-4.09h11.48c2.23,0,3.21.59,4.08,1.95L309.38,320c4.28,6.71,5.06,10.41,8.18,17.8h.77c-3.11-10-4.37-14.69-4.37-24.61V297.22c0-3,1-4.09,4.08-4.09H328C331,293.13,332.05,294.2,332.05,297.22Z" transform="translate(-16.88 -17.47)"/><path d="M400.63,362.2H390.12c-5.05,0-6.51-1.07-7.29-4.09l-2.24-7h-21l-2.24,7c-1,3-2.23,4.09-7.1,4.09H340c-3,0-3.6-1.36-2.63-4l22.37-61.67c1-2.82,2.24-3.41,5.06-3.41h11.09c2.82,0,4.09.68,5.06,3.21l22.47,61.87C404.42,360.84,403.55,362.2,400.63,362.2Zm-30.16-51.36h-1a51.39,51.39,0,0,1-1.85,13.52l-3.6,11.48h12.16l-3.6-11.38A61.63,61.63,0,0,1,370.47,310.84Z" transform="translate(-16.88 -17.47)"/><path d="M428,297.22v47.95h23.44c3,0,4.09,1,4.09,4.09v8.85c0,3-1.08,4.09-4.09,4.09H412.89c-3.11,0-4.18-1.07-4.18-4.09V297.22c0-3,1.07-4.09,4.18-4.09h11C427,293.13,428,294.2,428,297.22Z" transform="translate(-16.88 -17.47)"/><path d="M505.2,291.67c15,0,24.32,6.13,28.41,17,1,2.82.29,4.28-2.63,5.25l-10.41,3.7c-3,.87-4.18.39-5.25-2.63-1.75-4.38-4.67-6.32-10.12-6.32-7.68,0-10.7,3.3-10.7,10.11v17.71c0,6.81,3,10.11,10.7,10.11,5.45,0,8.56-2.14,10.12-6.32,1.17-3,2.34-3.7,5.25-2.63l10.41,3.7c2.92,1,3.6,2.43,2.63,5.25-4.09,10.9-13.43,17-28.41,17-19.16,0-30-10.41-30-27.24V318.91C475.24,302.08,486,291.67,505.2,291.67Z" transform="translate(-16.88 -17.47)"/><path d="M568.53,291.67c19.16,0,29.86,10.41,29.86,27.24v17.51c0,16.83-10.7,27.24-29.86,27.24s-30-10.41-30-27.24V318.91C538.57,302.08,549.27,291.67,568.53,291.67Zm0,17c-6.81,0-10.7,3.21-10.7,9.34V337.3c0,6.12,3.89,9.33,10.7,9.33s10.6-3.21,10.6-9.33V318C579.13,311.91,575.24,308.7,568.53,308.7Z" transform="translate(-16.88 -17.47)"/><path d="M663.08,362.2h-10.5c-5.06,0-6.52-1.07-7.3-4.09l-2.23-7H622l-2.24,7c-1,3-2.24,4.09-7.1,4.09H602.48c-3,0-3.6-1.36-2.62-4l22.37-61.67c1-2.82,2.24-3.41,5.06-3.41h11.09c2.82,0,4.08.68,5.06,3.21l22.47,61.87C666.88,360.84,666,362.2,663.08,362.2Zm-30.15-51.36h-1a51.88,51.88,0,0,1-1.85,13.52l-3.6,11.48h12.16l-3.6-11.38A61,61,0,0,1,632.93,310.84Z" transform="translate(-16.88 -17.47)"/><path d="M696.36,291.67c14.39,0,22.56,4.28,27.14,13.62,1.36,2.82.58,4.28-2.34,5.45l-9.73,4.18c-2.62,1.17-3.69.78-5.25-2-1.85-3.7-5.35-5.06-9.82-5.06-6.62,0-9.25,1.65-9.25,5.06,0,4.18,5.74,5.06,12.75,5.93,11.28,1.56,25.87,4.28,25.87,22.67,0,14.3-12.94,22.18-30.15,22.18-14.5,0-24.61-5-28.31-15.08-1.07-2.92-.19-4.28,2.63-5.35l9.14-3.31c2.92-1,4.28-.68,5.74,2.14,1.75,3.41,5.55,5.16,11,5.16,6.52,0,10.41-1.36,10.41-5.55,0-3.79-5-4.86-11.38-5.74-11.38-1.55-27.34-3.6-27.34-22.47C667.46,300.62,677.78,291.67,696.36,291.67Z" transform="translate(-16.88 -17.47)"/><path d="M785.27,297.22V306c0,3.12-1.07,4.19-4.19,4.19H766.69v47.95c0,3-1.07,4.09-4.19,4.09h-11c-3.11,0-4.08-1.07-4.08-4.09V310.16h-14.5c-3.11,0-4.08-1.07-4.08-4.19v-8.75c0-3,1-4.09,4.08-4.09h48.15C784.2,293.13,785.27,294.2,785.27,297.22Z" transform="translate(-16.88 -17.47)"/><path d="M66.45,394.9c24.78,0,40.23,10.14,47,28.16,1.6,4.67.48,7.08-4.35,8.69l-17.22,6.12c-5,1.45-6.92.64-8.69-4.35-2.89-7.24-7.72-10.46-16.73-10.46-12.72,0-17.7,5.48-17.7,16.74v29.29c0,11.26,5,16.73,17.7,16.73,9,0,14.16-3.54,16.73-10.46,1.93-5,3.86-6.11,8.69-4.34l17.22,6.11c4.83,1.61,6,4,4.35,8.69-6.76,18-22.21,28.16-47,28.16-31.7,0-49.57-17.22-49.57-45.05V440C16.88,412.12,34.75,394.9,66.45,394.9Z" transform="translate(-16.88 -17.47)"/><path d="M156.24,404.08v79.33H195c5,0,6.76,1.61,6.76,6.76v14.64c0,5-1.77,6.76-6.76,6.76H131.3c-5.15,0-6.92-1.77-6.92-6.76V404.08c0-5,1.77-6.76,6.92-6.76h18.18C154.63,397.32,156.24,399.09,156.24,404.08Z" transform="translate(-16.88 -17.47)"/><path d="M256.65,394.9c31.7,0,49.4,17.22,49.4,45.06v29c0,27.83-17.7,45.05-49.4,45.05-31.86,0-49.56-17.22-49.56-45.05V440C207.09,412.12,224.79,394.9,256.65,394.9Zm0,28.16c-11.26,0-17.7,5.31-17.7,15.45v31.86c0,10.14,6.44,15.45,17.7,15.45s17.54-5.31,17.54-15.45V438.51C274.19,428.37,267.76,423.06,256.65,423.06Z" transform="translate(-16.88 -17.47)"/><path d="M405.34,404.08v14.48c0,5.15-1.77,6.92-6.92,6.92H374.61v79.33c0,5-1.77,6.76-6.92,6.76H349.5c-5.15,0-6.75-1.77-6.75-6.76V425.48h-24c-5.15,0-6.76-1.77-6.76-6.92V404.08c0-5,1.61-6.76,6.76-6.76h79.65C403.57,397.32,405.34,399.09,405.34,404.08Z" transform="translate(-16.88 -17.47)"/><path d="M510.1,404.08V504.81c0,5-1.77,6.76-6.76,6.76H485c-5,0-6.76-1.77-6.76-6.76v-37H447v37c0,5-1.61,6.76-6.76,6.76H422.08c-5.15,0-6.92-1.77-6.92-6.76V404.08c0-5.15,1.77-6.92,6.92-6.92h18.18c5.15,0,6.76,1.77,6.76,6.92v35.56h31.22V404.08c0-5.15,1.77-6.92,6.76-6.92h18.34C508.33,397.16,510.1,398.93,510.1,404.08Z" transform="translate(-16.88 -17.47)"/><path d="M532.63,397.32h19c4.82,0,6.43,1.61,6.43,6.43V505.13c0,4.83-1.61,6.44-6.43,6.44h-19c-4.83,0-6.44-1.61-6.44-6.44V403.75C526.19,398.93,527.8,397.32,532.63,397.32Z" transform="translate(-16.88 -17.47)"/><path d="M670.86,404.08V504.81c0,5-1.77,6.76-6.76,6.76H645.91c-3.37,0-5.15-1-6.59-3.22l-24.78-38.14c-7.09-11.1-9.82-18.66-14.17-33.15h-1.28c3.38,15.45,5.31,23.66,5.31,41.52v26.23c0,5-1.77,6.76-6.92,6.76H581.22c-5.14,0-6.92-1.77-6.92-6.76V404.08c0-5,1.78-6.76,6.92-6.76h19c3.7,0,5.31,1,6.76,3.22l26.39,41.19c7.08,11.1,8.37,17.22,13.52,29.45h1.29c-5.15-16.58-7.24-24.3-7.24-40.71V404.08c0-5,1.61-6.76,6.75-6.76H664.1C669.09,397.32,670.86,399.09,670.86,404.08Z" transform="translate(-16.88 -17.47)"/><path d="M783.18,452.83v21.25c0,22.68-17.7,39.9-49.4,39.9s-49.57-17.22-49.57-45.05V440c0-27.84,17.86-45.06,49.57-45.06,24.78,0,40.23,10.14,47,28.16,1.61,4.67.49,7.08-4.34,8.69l-17.22,6.12c-5,1.61-6.92.64-8.69-4.35-2.89-7.24-7.72-10.46-16.73-10.46-12.72,0-17.71,5.48-17.71,16.74v29.29c0,11.26,5,16.73,17.71,16.73,10.78,0,17.38-4,17.38-10.94v-3.22H735.71c-5,0-6.76-1.61-6.76-6.76V452.83c0-5.15,1.77-6.92,6.76-6.92h40.71C781.57,445.91,783.18,447.68,783.18,452.83Z" transform="translate(-16.88 -17.47)"/></g></svg>